<svg width="160" height="30" viewBox="0 0 160 30" fill="none" xmlns="http://www.w3.org/2000/svg">
<path d="M2.52131 17.608V16.1875L13.956 10.3636V12.6364L5.18466 16.8622L5.25568 16.7202V17.0753L5.18466 16.9332L13.956 21.1591V23.4318L2.52131 17.608Z" fill="#00D1FF"/>
<path d="M142.345 4.96591L136.486 26.7344H134.568L140.428 4.96591H142.345ZM156.867 17.608L145.432 23.4318V21.1591L154.204 16.9332L154.133 17.0753V16.7202L154.204 16.8622L145.432 12.6364V10.3636L156.867 16.1875V17.608Z" fill="#00D1FF"/>
<path d="M22.2461 6.44336H20.0488L27.8125 24.2656H29.6191L37.3828 6.44336H35.2832L28.7402 21.6777L22.2461 6.44336ZM40.3809 8.64062V6.3457H37.9395V8.64062H40.3809ZM40.1367 11.668H38.1348V24.2656H40.1367V11.668ZM49.1406 11.668H45.5273V7.76172L43.5254 8.44531V11.668H41.084V13.2793H43.5254V20.457C43.5254 23.0449 44.9414 24.4609 47.334 24.4609C47.9688 24.4609 48.5547 24.3633 49.0918 24.168V22.459C48.6523 22.6055 48.2129 22.7031 47.7246 22.7031C46.3574 22.7031 45.5273 22.0195 45.5273 20.1641V13.2793H49.1406V11.668ZM49.3066 17.918C49.3066 21.873 51.6504 24.4609 55.2148 24.4609C58.8281 24.4609 61.1719 21.873 61.1719 17.918C61.1719 13.9629 58.8281 11.375 55.2148 11.375C51.6504 11.375 49.3066 13.9629 49.3066 17.918ZM59.1211 17.918C59.1211 21.0918 57.7539 22.752 55.2148 22.752C52.7246 22.752 51.3574 21.0918 51.3574 17.918C51.3574 14.8418 52.7734 13.084 55.2148 13.084C57.6562 13.084 59.1211 14.8418 59.1211 17.918ZM70.0781 11.5215C69.7363 11.4238 69.3457 11.375 68.9551 11.375C67.1484 11.375 65.6348 12.3027 65 14.0117L64.8047 11.668H62.9004C62.998 12.7422 63.0957 13.9141 63.0957 15.2324V24.2656H65.0977V17.0879C65.0977 16.0137 65.4395 15.0859 65.9766 14.3535C66.6113 13.5723 67.4902 13.1816 68.7109 13.1816C69.1992 13.1816 69.6875 13.2793 70.0293 13.377L70.0781 11.5215ZM72.832 6.44336H70.6348L78.3984 24.2656H80.2051L87.9688 6.44336H85.8691L79.3262 21.6777L72.832 6.44336ZM90.9668 8.64062V6.3457H88.5254V8.64062H90.9668ZM90.7227 11.668H88.7207V24.2656H90.7227V11.668ZM95.4297 5.85742H93.4277V24.2656H95.4297V5.85742ZM108.584 17.5273C108.584 13.7188 106.582 11.375 103.262 11.375C99.7949 11.375 97.3535 14.0605 97.3535 17.918C97.3535 21.9707 99.6973 24.4609 103.652 24.4609C105.41 24.4609 107.266 23.7773 108.389 22.752L107.705 21.2871C106.484 22.2637 105.117 22.752 103.652 22.752C100.869 22.752 99.4043 21.0918 99.4043 17.918H108.584V17.5273ZM99.4531 16.5996C99.8438 14.3047 101.162 12.9863 103.262 12.9863C105.361 12.9863 106.582 14.207 106.777 16.5996H99.4531ZM112.51 5.85742H110.508V24.2656H112.51V5.85742ZM124.248 13.8652C123.467 12.3027 121.953 11.375 120 11.375C116.68 11.375 114.434 14.0605 114.434 17.9668C114.434 21.873 116.631 24.4609 120 24.4609C121.953 24.4609 123.516 23.582 124.248 21.9707V24.2656H126.25V11.668H124.248V13.8652ZM124.248 17.918C124.248 20.9941 122.881 22.752 120.391 22.752C117.9 22.752 116.484 21.043 116.484 17.9668C116.484 14.8906 117.9 13.084 120.391 13.084C122.881 13.084 124.248 14.793 124.248 17.918Z" fill="white"/>
</svg>
